<svg id="Layer_1" data-name="Layer 1" xmlns="http://www.w3.org/2000/svg" viewBox="0 0 2048 2048"><defs><style>.cls-1{fill:red;stroke:#fff;stroke-miterlimit:10;stroke-width:10px;}</style></defs><path class="cls-1" d="M1823.88,713.4V527.24c0-167.41-135.71-303.12-303.12-303.12H1334.6a860.66,860.66,0,0,0-621.2,0H527.24c-167.41,0-303.12,135.71-303.12,303.12V713.4a860.66,860.66,0,0,0,0,621.2v186.16c0,167.41,135.71,303.12,303.12,303.12H713.4a860.66,860.66,0,0,0,621.2,0h186.16c167.41,0,303.12-135.71,303.12-303.12V1334.6a860.66,860.66,0,0,0,0-621.2ZM1195.77,932.5q20.2,0,20.21-20.21V447.5q0-40.41,50.52-40.42T1317,447.5V972.91q0,40.43-60.62,40.42h-60.63q-40.41,0-40.42-40.42T1195.77,932.5Zm-84.89,200.82h60.6v-2.75q0-11,13.77-11t13.77,11v13.77q0,11-11,11h-77.12q-11,0-11-11T1110.88,1133.32ZM731,447.5q0-40.41,50.52-40.42T832,447.5V892.08q0,40.42,40.42,40.42h80.83q40.41,0,40.42-40.42V447.5q0-40.41,50.52-40.42t50.52,40.42V892.08q0,121.24-141.46,121.25H872.44Q731,1013.33,731,892.08Zm349.37,696.84q0,11-11,11H992.21q-11,0-11-11t11-11h77.12Q1080.36,1133.32,1080.35,1144.34Zm-118.67-38.56q0,5.51-11,5.5H873.53q-11,0-11-11v-5.51q0-11,11-11H917.6q13.23,0,28.65,8.27l7.71,4.07Q961.69,1100.26,961.68,1105.78ZM776.9,1287.57q0,11-19.28,11-8.26,0-19.28-10.79l-11-10.8-11,10.8q-11,10.8-19.28,10.79-19.28,0-19.28-11v-99.16q0-11,13.77-11t13.77,11v81.2l22-19.39,22,19.39v-70.18h-5.51q-11,0-11-11t11-11h16.53q16.53,0,16.53,11Zm0-143.23q0,11-11,11H688.76q-11,0-11-11t11-11h60.59v-2.75q0-11,13.78-11t13.77,11Zm19.51,143.23v-121.2q0-33,38.56-33h19.29q38.55,0,38.56,33v99.16q0,11,11,11h22q8.26,0,8.26-11V1144.34q0-11,13.77-11t13.78,11v121.19q0,33.06-35.81,33h-22q-38.57,0-38.57-33v-99.16q0-11-11-11H835q-11,0-11,11v110.18h5.51q11,0,11,11t-11,11H812.94Q796.41,1298.58,796.41,1287.57Zm132.21,270.77q0,11-13.77,11t-13.77-11v-77.13q0-11-11-11H868q-11,0-11,11v77.13q0,11-13.77,11t-13.77-11v-77.13q0-33,38.56-33h22q38.57,0,38.56,33Zm-11-132.21H840.48q-11,0-11-11t11-11h77.13q11,0,11,11T917.61,1426.13Zm129.69,264.42q0,11-13.77,11t-13.78-11v-22q-5.5,0-5.51-8.26t16.53-8.27q16.53,0,16.53,11Zm4.51-55.09q0,11-13.77,11t-13.77-11v-33.6l-22,10.68-22-10.68v22.58h5.51q11,0,11,11t-11,11H969.18q-16.53,0-16.53-7.38v-47.71q0-11,16.2-11,11.34,0,16.86,2.64l16.52,8,16.53-8q5.5-2.64,16.85-2.64,16.2,0,16.2,11Zm4.51-99.16q0,33.06-38.56,33h-22q-38.57,0-38.56-33V1415.11q0-11,13.77-11t13.77,11V1536.3q0,11,11,11h22q11,0,11-11v-38.56h-27.54q-11,0-11-11t11-11h27.54v-60.59q0-11,13.77-11t13.77,11Zm-3.51-248.73v-77.13q0-11-11-11h-22q-11,0-11,11v66.11h5.51q11,0,11,11t-11,11H997.72q-16.53,0-16.53-11v-77.13q0-33,38.56-33h22q38.55,0,38.56,33v77.13q0,11-13.77,11T1052.81,1287.57ZM1175,1558.34q0,11-19.28,11-8.27,0-19.28-10.79l-11-10.8-11,10.8q-11,10.8-19.28,10.79-19.29,0-19.28-11v-99.16q0-11,13.77-11t13.77,11v81.2l22-19.39,22,19.39v-81.2q0-11,13.78-11t13.77,11Zm0-143.23q0,11-11,11h-77.12q-11,0-11-11t11-11h60.59v-2.75q0-11,13.78-11t13.77,11Zm-14.54-127.32-11-10.8-11,10.8q-11,10.8-19.28,10.79-19.28,0-19.28-11v-99.16q0-11,13.77-11t13.78,11v81.2l22-19.39,22,19.39v-70.18H1166q-11,0-11-11t11-11h16.53q16.51,0,16.52,11v99.16q0,11-19.28,11Q1171.47,1298.58,1160.46,1287.79Zm80.64,270.55q0,11-13.77,11t-13.77-11v-121.2q0-11-12.12-11H1197q-11,0-11-11t11-11h4.41q39.66,0,39.66,33.05Zm142.7-292.81q0,33.06-35.81,33h-22q-38.57,0-38.56-33v-99.16q0-11-11-11H1257.1q-11,0-11,11v110.18h5.51q11,0,11,11t-11,11h-16.53q-16.51,0-16.53-11v-121.2q0-33,38.57-33h19.28q38.55,0,38.56,33v99.16q0,11,11,11h22q8.27,0,8.27-11V1144.34q0-11,13.77-11t13.77,11Z"/></svg>